<mxfile host="app.diagrams.net" modified="2023-10-21T23:02:16.071Z" agent="Mozilla/5.0 (Macintosh; Intel Mac OS X 10_15_7) AppleWebKit/537.36 (KHTML, like Gecko) Chrome/116.0.0.0 Safari/537.36" etag="ntn_dCRQ-ebJG5-lTg9I" version="21.8.2" type="device">
  <diagram name="Page-1" id="J7dh0k1Fz1uVuJIhtfzL">
    <mxGraphModel dx="2618" dy="1517" grid="1" gridSize="10" guides="1" tooltips="1" connect="1" arrows="1" fold="1" page="1" pageScale="1" pageWidth="1920" pageHeight="1200" math="0" shadow="0">
      <root>
        <mxCell id="0" />
        <mxCell id="1" parent="0" />
        <mxCell id="ZUWSlhSXogH75XPn63zN-2" value="" style="rounded=0;whiteSpace=wrap;html=1;dashed=1;" parent="1" vertex="1">
          <mxGeometry x="70" y="180" width="290" height="380" as="geometry" />
        </mxCell>
        <mxCell id="ZUWSlhSXogH75XPn63zN-7" value="" style="edgeStyle=orthogonalEdgeStyle;rounded=0;orthogonalLoop=1;jettySize=auto;html=1;" parent="1" source="ZUWSlhSXogH75XPn63zN-3" target="ZUWSlhSXogH75XPn63zN-4" edge="1">
          <mxGeometry relative="1" as="geometry" />
        </mxCell>
        <mxCell id="ZUWSlhSXogH75XPn63zN-3" value="By-Law Script" style="rounded=0;whiteSpace=wrap;html=1;" parent="1" vertex="1">
          <mxGeometry x="90" y="220" width="250" height="40" as="geometry" />
        </mxCell>
        <mxCell id="ZUWSlhSXogH75XPn63zN-8" value="" style="edgeStyle=orthogonalEdgeStyle;rounded=0;orthogonalLoop=1;jettySize=auto;html=1;" parent="1" source="ZUWSlhSXogH75XPn63zN-4" target="ZUWSlhSXogH75XPn63zN-5" edge="1">
          <mxGeometry relative="1" as="geometry" />
        </mxCell>
        <mxCell id="ZUWSlhSXogH75XPn63zN-4" value="Vanilla JavaScript" style="rounded=0;whiteSpace=wrap;html=1;" parent="1" vertex="1">
          <mxGeometry x="90" y="350" width="250" height="40" as="geometry" />
        </mxCell>
        <mxCell id="ZUWSlhSXogH75XPn63zN-5" value="generated program(JSON body)" style="rounded=0;whiteSpace=wrap;html=1;" parent="1" vertex="1">
          <mxGeometry x="90" y="470" width="250" height="40" as="geometry" />
        </mxCell>
        <mxCell id="ZUWSlhSXogH75XPn63zN-6" value="Operator Client &lt;br&gt;(in browser or Node.js)" style="text;html=1;strokeColor=none;fillColor=none;align=center;verticalAlign=middle;whiteSpace=wrap;rounded=0;" parent="1" vertex="1">
          <mxGeometry x="145" y="130" width="140" height="30" as="geometry" />
        </mxCell>
        <mxCell id="ZUWSlhSXogH75XPn63zN-9" value="" style="rounded=0;whiteSpace=wrap;html=1;dashed=1;" parent="1" vertex="1">
          <mxGeometry x="550" y="425" width="200" height="130" as="geometry" />
        </mxCell>
        <mxCell id="ZUWSlhSXogH75XPn63zN-10" value="EVM-compatible blockchain" style="text;html=1;strokeColor=none;fillColor=none;align=center;verticalAlign=middle;whiteSpace=wrap;rounded=0;" parent="1" vertex="1">
          <mxGeometry x="562.5" y="370" width="175" height="30" as="geometry" />
        </mxCell>
        <mxCell id="ZUWSlhSXogH75XPn63zN-11" value="your on-chain DARC" style="rounded=0;whiteSpace=wrap;html=1;" parent="1" vertex="1">
          <mxGeometry x="590" y="460" width="120" height="60" as="geometry" />
        </mxCell>
        <mxCell id="ZUWSlhSXogH75XPn63zN-12" style="edgeStyle=orthogonalEdgeStyle;rounded=0;orthogonalLoop=1;jettySize=auto;html=1;" parent="1" source="ZUWSlhSXogH75XPn63zN-5" target="ZUWSlhSXogH75XPn63zN-11" edge="1">
          <mxGeometry relative="1" as="geometry" />
        </mxCell>
        <mxCell id="ZUWSlhSXogH75XPn63zN-14" value="Babel.js transpiler with plugins" style="text;html=1;strokeColor=none;fillColor=none;align=center;verticalAlign=middle;whiteSpace=wrap;rounded=0;" parent="1" vertex="1">
          <mxGeometry x="210" y="290" width="120" height="30" as="geometry" />
        </mxCell>
        <mxCell id="ZUWSlhSXogH75XPn63zN-15" value="Code generator in JavaScript runtime" style="text;html=1;strokeColor=none;fillColor=none;align=center;verticalAlign=middle;whiteSpace=wrap;rounded=0;" parent="1" vertex="1">
          <mxGeometry x="220" y="410" width="110" height="30" as="geometry" />
        </mxCell>
        <mxCell id="ZUWSlhSXogH75XPn63zN-16" value="ethers.js with signer and JsonRpcProvider" style="text;html=1;strokeColor=none;fillColor=none;align=center;verticalAlign=middle;whiteSpace=wrap;rounded=0;" parent="1" vertex="1">
          <mxGeometry x="400" y="460" width="120" height="30" as="geometry" />
        </mxCell>
      </root>
    </mxGraphModel>
  </diagram>
</mxfile>
